# xmcd
#
# Track frame offsets:
#	150
#	15746
#	34510
#	49010
#	70334
#	94544
#	111382
#	127501
#	143664
#	165641
#	187677
#	202872
#	219185
#	232003
#	250447
#	266047
#	283064
#	298429
#	313166
#	327820
#
# Disc length: 4608 seconds
# Revision: 2
# Processed by: cddbd v1.5.2PL0 Copyright (c) Steve Scherf et al.
# Submitted via: dBpowerAMP V12.0
#
DISCID=2111fe14
DTITLE=Bill Wyman's Rhythm Kings - The best of Bill Wyman's Rhythm Kings, vol. 2
DYEAR=2012
DGENRE=Blues
TTITLE0=She's looking good
TTITLE1=Taxman
TTITLE2=Walking on my own
TTITLE3=Booty ooty
TTITLE4=Love's down the drain
TTITLE5=Stuff (can't get enough)
TTITLE6=Hit that jive jack
TTITLE7=Love letters
TTITLE8=Rhythm king
TTITLE9=Melody
TTITLE10=Tired and sleepy
TTITLE11=Spooky
TTITLE12=You don't know
TTITLE13=Rough cut diamond
TTITLE14=Lonely blue boy
TTITLE15=Can't get my rest at night
TTITLE16=I'm mad
TTITLE17=Just for a thrill
TTITLE18=That's how heartaches are made
TTITLE19=Town living
EXTD=
EXTT0=
EXTT1=
EXTT2=
EXTT3=
EXTT4=
EXTT5=
EXTT6=
EXTT7=
EXTT8=
EXTT9=
EXTT10=
EXTT11=
EXTT12=
EXTT13=
EXTT14=
EXTT15=
EXTT16=
EXTT17=
EXTT18=
EXTT19=
PLAYORDER=
